<?xml version="1.0" encoding="UTF-8" standalone="no"?>
<!-- Created with Inkscape (http://www.inkscape.org/) -->

<svg
   xmlns:dc="http://purl.org/dc/elements/1.1/"
   xmlns:cc="http://creativecommons.org/ns#"
   xmlns:rdf="http://www.w3.org/1999/02/22-rdf-syntax-ns#"
   xmlns:svg="http://www.w3.org/2000/svg"
   xmlns="http://www.w3.org/2000/svg"
   xmlns:sodipodi="http://sodipodi.sourceforge.net/DTD/sodipodi-0.dtd"
   xmlns:inkscape="http://www.inkscape.org/namespaces/inkscape"
   width="171"
   height="111"
   viewBox="0 0 171 111"
   id="svg2"
   version="1.1"
   inkscape:version="0.91 r13725"
   sodipodi:docname="logo.svg">
  <defs
     id="defs4">
    <linearGradient
       x1="0"
       y1="0"
       x2="1"
       y2="0"
       gradientUnits="userSpaceOnUse"
       gradientTransform="matrix(56.328472,0,0,-56.328472,317.17676,371.51758)"
       spreadMethod="pad"
       id="linearGradient4248">
      <stop
         style="stop-opacity:1;stop-color:#df4847"
         offset="0"
         id="stop4250" />
      <stop
         style="stop-opacity:1;stop-color:#df4847"
         offset="0.34703259"
         id="stop4252" />
      <stop
         style="stop-opacity:1;stop-color:#ec008c"
         offset="1"
         id="stop4254" />
    </linearGradient>
    <linearGradient
       x1="0"
       y1="0"
       x2="1"
       y2="0"
       gradientUnits="userSpaceOnUse"
       gradientTransform="matrix(48.480545,83.970779,83.970779,-48.480545,316.6582,298.05957)"
       spreadMethod="pad"
       id="linearGradient4226">
      <stop
         style="stop-opacity:1;stop-color:#0097d7"
         offset="0"
         id="stop4228" />
      <stop
         style="stop-opacity:1;stop-color:#a3238e"
         offset="0.97453539"
         id="stop4230" />
      <stop
         style="stop-opacity:1;stop-color:#a3238e"
         offset="1"
         id="stop4232" />
    </linearGradient>
    <linearGradient
       x1="0"
       y1="0"
       x2="1"
       y2="0"
       gradientUnits="userSpaceOnUse"
       gradientTransform="matrix(-58.004215,-5.1e-6,-5.1e-6,58.004215,289.50098,307.36328)"
       spreadMethod="pad"
       id="linearGradient4206">
      <stop
         style="stop-opacity:1;stop-color:#b5cd3e"
         offset="0"
         id="stop4208" />
      <stop
         style="stop-opacity:1;stop-color:#fff200"
         offset="1"
         id="stop4210" />
    </linearGradient>
    <linearGradient
       x1="0"
       y1="0"
       x2="1"
       y2="0"
       gradientUnits="userSpaceOnUse"
       gradientTransform="matrix(-40.047661,-72.247864,-72.247864,40.047661,286.51416,383.70361)"
       spreadMethod="pad"
       id="linearGradient4184">
      <stop
         style="stop-opacity:1;stop-color:#f6c655"
         offset="0"
         id="stop4186" />
      <stop
         style="stop-opacity:1;stop-color:#f6c655"
         offset="0.42208558"
         id="stop4188" />
      <stop
         style="stop-opacity:1;stop-color:#f58220"
         offset="1"
         id="stop4190" />
    </linearGradient>
  </defs>
  <sodipodi:namedview
     id="base"
     pagecolor="#ffffff"
     bordercolor="#666666"
     borderopacity="1.0"
     inkscape:pageopacity="0.0"
     inkscape:pageshadow="2"
     inkscape:zoom="3.8161766"
     inkscape:cx="79.531661"
     inkscape:cy="42.810853"
     inkscape:document-units="px"
     inkscape:current-layer="layer1"
     showgrid="false"
     units="px"
     inkscape:snap-bbox="true"
     inkscape:snap-page="true"
     inkscape:bbox-nodes="true"
     inkscape:window-width="1362"
     inkscape:window-height="717"
     inkscape:window-x="0"
     inkscape:window-y="49"
     inkscape:window-maximized="0" />
  <metadata
     id="metadata7">
    <rdf:RDF>
      <cc:Work
         rdf:about="">
        <dc:format>image/svg+xml</dc:format>
        <dc:type
           rdf:resource="http://purl.org/dc/dcmitype/StillImage" />
        <dc:title></dc:title>
      </cc:Work>
    </rdf:RDF>
  </metadata>
  <g
     inkscape:label="Layer 1"
     inkscape:groupmode="layer"
     id="layer1"
     transform="translate(0,-941.36216)">
    <g
       id="g4327"
       transform="translate(0.22069899,-1.06359)"
       style="fill:#ffffff">
      <g
         id="g4172"
         transform="matrix(1.25,0,0,-1.25,-291.66793,1422.112)"
         style="fill:#ffffff">
        <g
           id="g4174"
           style="fill:#ffffff">
          <g
             id="g4180"
             style="fill:#ffffff">
            <g
               id="g4182"
               style="fill:#ffffff">
              <path
                 inkscape:connector-curvature="0"
                 id="path4192"
                 style="fill:#ffffff;stroke:none"
                 d="m 234.766,317.519 0.029,-0.054 0.021,-0.04 16.612,-10.939 9.392,11.022 28.738,44.519 c 5.06,9.22 -2.796,20.741 -12.005,21.722 l 0,0 c -14.279,-22.064 -28.533,-44.147 -42.787,-66.23" />
            </g>
          </g>
        </g>
      </g>
      <g
         id="g4194"
         transform="matrix(1.25,0,0,-1.25,-291.66793,1422.112)"
         style="fill:#ffffff">
        <g
           id="g4196"
           style="fill:#ffffff">
          <g
             id="g4202"
             style="fill:#ffffff">
            <g
               id="g4204"
               style="fill:#ffffff">
              <path
                 inkscape:connector-curvature="0"
                 id="path4212"
                 style="fill:#ffffff;stroke:none"
                 d="m 246.426,295.132 2.069,0.003 0,0.014 c 16.905,0 33.952,0.058 50.449,0.085 l 0,0 c 0.119,-0.013 0.232,-0.044 0.337,-0.085 l 0,0 2.045,0 c 4.548,8.625 -0.85,22.224 -11.648,22.421 l 0,0 c -23.674,-0.037 -5.108,-0.024 -28.84,-0.063 l 0,0 -23.679,-0.039 c -0.979,0.119 -1.53,1.246 -1.037,2.127 l 0,0 c -6.755,-8.307 -1.394,-24.25 10.304,-24.463" />
            </g>
          </g>
        </g>
      </g>
      <g
         id="g4214"
         transform="matrix(1.25,0,0,-1.25,-291.66793,1422.112)"
         style="fill:#ffffff">
        <g
           id="g4216"
           style="fill:#ffffff">
          <g
             id="g4222"
             style="fill:#ffffff">
            <g
               id="g4224"
               style="fill:#ffffff">
              <path
                 inkscape:connector-curvature="0"
                 id="path4234"
                 style="fill:#ffffff;stroke:none"
                 d="m 341.699,361.373 -28.738,-44.518 c -5.059,-9.221 2.795,-20.742 12.005,-21.723 l 0,0 c 14.279,22.064 28.532,44.149 42.787,66.23 l 0,0 -0.028,0.054 -0.022,0.04 -16.612,10.939 -9.392,-11.022 z" />
            </g>
          </g>
        </g>
      </g>
      <g
         id="g4236"
         transform="matrix(1.25,0,0,-1.25,-291.66793,1422.112)"
         style="fill:#ffffff">
        <g
           id="g4238"
           style="fill:#ffffff">
          <g
             id="g4244"
             style="fill:#ffffff">
            <g
               id="g4246"
               style="fill:#ffffff">
              <path
                 inkscape:connector-curvature="0"
                 id="path4256"
                 style="fill:#ffffff;stroke:none"
                 d="m 354.023,383.746 0,-0.014 c -16.905,0 -33.951,-0.058 -50.449,-0.085 l 0,0 c -0.118,0.014 -0.23,0.044 -0.336,0.085 l 0,0 -2.045,0 c -4.548,-8.625 0.85,-22.224 11.649,-22.422 l 0,0 c 23.672,0.039 5.107,0.025 28.838,0.064 l 0,0 23.679,0.039 c 0.979,-0.119 1.53,-1.246 1.037,-2.127 l 0,0 c 6.757,8.307 1.394,24.25 -10.303,24.463 l 0,0 -2.07,-0.003 z" />
            </g>
          </g>
        </g>
      </g>
    </g>
  </g>
</svg>
